General
Complete name                  : The Innkeepers (2011) 720p HDRip X264 AAC MP4 (EUS_XA)
Format                         : MPEG-4
Format profile                 : Base Media / Version 2
Codec ID                       : mp42
File size                      : 1.81 GiB
Duration                       : 1h 41mn
Overall bit rate mode          : Variable
Overall bit rate               : 2 561 Kbps
Encoded date                   : UTC 2012-06-23 21:15:09
Tagged date                    : UTC 2012-06-23 21:44:24
Writing application            : HandBrake 0.9.6 2012022800

Video
ID                             : 1
Format                         : AVC
Format/Info                    : Advanced Video Codec
Format profile                 : Main@L3.1
Format settings, CABAC         : Yes
Format settings, ReFrames      : 4 frames
Codec ID                       : avc1
Codec ID/Info                  : Advanced Video Coding
Duration                       : 1h 41mn
Bit rate mode                  : Variable
Bit rate                       : 2 300 Kbps
Width                          : 1 280 pixels
Height                         : 528 pixels
Display aspect ratio           : 2.40:1
Frame rate mode                : Variable
Frame rate                     : 23.976 fps
Minimum frame rate             : 23.810 fps
Maximum frame rate             : 24.390 fps
Color space                    : YUV
Chroma subsampling             : 4:2:0
Bit depth                      : 8 bits
Scan type                      : Progressive
Bits/(Pixel*Frame)             : 0.142
Stream size                    : 1.63 GiB (90%)
Writing library                : x264 core 120

...............................

Audio
ID                             : 2
Format                         : AAC
Format/Info                    : Advanced Audio Codec
Format profile                 : LC
Codec ID                       : 40
Duration                       : 1h 41mn
Bit rate mode                  : Variable
Bit rate                       : 256 Kbps
Maximum bit rate               : 436 Kbps
Channel(s)                     : 2 channels
Channel positions              : Front: L R
Sampling rate                  : 48.0 KHz
Compression mode               : Lossy
Delay relative to video        : -83ms
Stream size                    : 186 MiB (10%)
Encoded date                   : UTC 2012-06-23 21:15:09

 
https://sites.google.com/site/azpidatziak/